# Made in Blockbench 4.9.4
mtllib nball.mtl

o sphere
v 5.523359547510153e-16 -13 5.523359547510153e-16
v 5.523359547510153e-16 13 5.523359547510153e-16
v 1.6663090404310446 11.258330249197702 6.218749999999998
v 2.8861319191379113 6.500000000000001 10.771190959568955
v 3.332618080862089 7.960204194457794e-16 12.4375
v 2.886131919137912 -6.499999999999997 10.77119095956896
v 1.6663090404310446 -11.258330249197702 6.218749999999998
v 4.552440959568954 11.258330249197702 4.552440959568956
v 7.885059040431046 6.500000000000001 7.885059040431045
v 9.104881919137911 7.960204194457794e-16 9.104881919137913
v 7.885059040431046 -6.499999999999997 7.885059040431045
v 4.552440959568954 -11.258330249197702 4.552440959568956
v 6.218749999999998 11.258330249197702 1.6663090404310443
v 10.771190959568955 6.500000000000001 2.8861319191379113
v 12.4375 7.960204194457794e-16 3.3326180808620887
v 10.77119095956896 -6.499999999999997 2.886131919137912
v 6.218749999999998 -11.258330249197702 1.6663090404310443
v 6.218749999999998 11.258330249197702 -1.666309040431044
v 10.771190959568955 6.500000000000001 -2.8861319191379113
v 12.4375 7.960204194457794e-16 -3.3326180808620887
v 10.77119095956896 -6.499999999999997 -2.886131919137912
v 6.218749999999998 -11.258330249197702 -1.666309040431044
v 4.552440959568956 11.258330249197702 -4.552440959568953
v 7.885059040431046 6.500000000000001 -7.8850590404310426
v 9.104881919137915 7.960204194457794e-16 -9.104881919137911
v 7.885059040431046 -6.499999999999997 -7.8850590404310426
v 4.552440959568956 -11.258330249197702 -4.552440959568953
v 1.666309040431046 11.258330249197702 -6.2187499999999964
v 2.886131919137915 6.500000000000001 -10.771190959568951
v 3.332618080862092 7.960204194457794e-16 -12.437499999999996
v 2.886131919137915 -6.499999999999997 -10.771190959568955
v 1.666309040431046 -11.258330249197702 -6.2187499999999964
v -1.6663090404310403 11.258330249197702 -6.218749999999998
v -2.8861319191379056 6.500000000000001 -10.771190959568955
v -3.3326180808620824 7.960204194457794e-16 -12.4375
v -2.8861319191379065 -6.499999999999997 -10.77119095956896
v -1.6663090404310403 -11.258330249197702 -6.218749999999998
v -4.552440959568953 11.258330249197702 -4.552440959568955
v -7.8850590404310426 6.500000000000001 -7.885059040431045
v -9.104881919137911 7.960204194457794e-16 -9.104881919137913
v -7.8850590404310426 -6.499999999999997 -7.885059040431045
v -4.552440959568953 -11.258330249197702 -4.552440959568955
v -6.218749999999998 11.258330249197702 -1.666309040431042
v -10.771190959568955 6.500000000000001 -2.8861319191379087
v -12.437499999999996 7.960204194457794e-16 -3.3326180808620856
v -10.771190959568955 -6.499999999999997 -2.8861319191379096
v -6.218749999999998 -11.258330249197702 -1.666309040431042
v -6.218749999999998 11.258330249197702 1.6663090404310414
v -10.771190959568955 6.500000000000001 2.886131919137907
v -12.4375 7.960204194457794e-16 3.332618080862083
v -10.77119095956896 -6.499999999999997 2.886131919137907
v -6.218749999999998 -11.258330249197702 1.6663090404310414
v -4.552440959568954 11.258330249197702 4.552440959568953
v -7.885059040431046 6.500000000000001 7.8850590404310426
v -9.104881919137915 7.960204194457794e-16 9.104881919137911
v -7.885059040431046 -6.499999999999997 7.8850590404310426
v -4.552440959568954 -11.258330249197702 4.552440959568953
v -1.6663090404310428 11.258330249197702 6.218749999999998
v -2.88613191913791 6.500000000000001 10.771190959568955
v -3.332618080862087 7.960204194457794e-16 12.4375
v -2.88613191913791 -6.499999999999997 10.77119095956896
v -1.6663090404310428 -11.258330249197702 6.218749999999998
vt 0 0.006799999999999917
vt 0.3996 0.006799999999999917
vt 0.1998 1
vt 0.1834353878988617 1
vt 0 -0.0010125000000000828
vt 0.8680332757977234 -0.0010125000000000828
vt 0.6845978878988618 1
vt 0.06714586210113829 1
vt 0 -0.0010125000000000828
vt 1.002325 -0.0010125000000000828
vt 0.9351791378988616 1
vt 0 1
vt 0.06714586210113829 -0.0010125000000000828
vt 0.9351791378988616 -0.0010125000000000828
vt 1.002325 1
vt 0 1
vt 0.1834353878988617 -0.0010125000000000828
vt 0.6845978878988618 -0.0010125000000000828
vt 0.8680332757977234 1
vt 0.31366250000000007 1
vt 0 1
vt 0.15683125000000003 -0.0010125000000000828
vt 0 0.006799999999999917
vt 0.4230375 0.006799999999999917
vt 0.21151875 1
vt 0.1834353878988617 1
vt 0 -0.0010125000000000828
vt 0.8680332757977234 -0.0010125000000000828
vt 0.6845978878988618 1
vt 0.06714586210113829 1
vt 0 -0.0010125000000000828
vt 1.002325 -0.0010125000000000828
vt 0.9351791378988616 1
vt 0 1
vt 0.06714586210113829 -0.0010125000000000828
vt 0.9351791378988616 -0.0010125000000000828
vt 1.002325 1
vt 0 1
vt 0.1834353878988617 -0.0010125000000000828
vt 0.6845978878988618 -0.0010125000000000828
vt 0.8680332757977234 1
vt 0.31366250000000007 1
vt 0 1
vt 0.15683125000000003 -0.0010125000000000828
vt 0 -0.0010125000000000828
vt 0.5167875000000001 -0.0010125000000000828
vt 0.25839375000000003 1
vt 0.1834353878988617 1
vt 0 -0.0010125000000000828
vt 0.8680332757977234 -0.0010125000000000828
vt 0.6845978878988618 1
vt 0.06714586210113829 1
vt 0 -0.0010125000000000828
vt 1.002325 -0.0010125000000000828
vt 0.9351791378988616 1
vt 0 1
vt 0.06714586210113829 -0.0010125000000000828
vt 0.9351791378988616 -0.0010125000000000828
vt 1.002325 1
vt 0 1
vt 0.1834353878988617 -0.0010125000000000828
vt 0.6845978878988618 -0.0010125000000000828
vt 0.8680332757977234 1
vt 0.31366250000000007 1
vt 0 1
vt 0.15683125000000003 -0.0010125000000000828
vt 0 0.006799999999999917
vt 0.4855375 0.006799999999999917
vt 0.24276875 1
vt 0.1834353878988617 1
vt 0 -0.0010125000000000828
vt 0.8680332757977234 -0.0010125000000000828
vt 0.6845978878988618 1
vt 0.06714586210113829 1
vt 0 -0.0010125000000000828
vt 1.002325 -0.0010125000000000828
vt 0.9351791378988616 1
vt 0 1
vt 0.06714586210113829 -0.0010125000000000828
vt 0.9351791378988616 -0.0010125000000000828
vt 1.002325 1
vt 0 1
vt 0.1834353878988617 -0.0010125000000000828
vt 0.6845978878988618 -0.0010125000000000828
vt 0.8680332757977234 1
vt 0.31366250000000007 1
vt 0 1
vt 0.15683125000000003 -0.0010125000000000828
vt 0 0.006799999999999917
vt 0.477725 0.006799999999999917
vt 0.2388625 1
vt 0.1834353878988617 1
vt 0 -0.0010125000000000828
vt 0.8680332757977234 -0.0010125000000000828
vt 0.6845978878988618 1
vt 0.06714586210113829 1
vt 0 -0.0010125000000000828
vt 1.002325 -0.0010125000000000828
vt 0.9351791378988616 1
vt 0 1
vt 0.06714586210113829 -0.0010125000000000828
vt 0.9351791378988616 -0.0010125000000000828
vt 1.002325 1
vt 0 1
vt 0.1834353878988617 -0.0010125000000000828
vt 0.6845978878988618 -0.0010125000000000828
vt 0.8680332757977234 1
vt 0.31366250000000007 1
vt 0 1
vt 0.15683125000000003 -0.0010125000000000828
vt 0 0.006799999999999806
vt 0.44647499999999996 0.006799999999999806
vt 0.22323749999999998 1
vt 0.1834353878988617 1
vt 0 -0.0010125000000000828
vt 0.8680332757977234 -0.0010125000000000828
vt 0.6845978878988618 1
vt 0.06714586210113829 1
vt 0 -0.0010125000000000828
vt 1.002325 -0.0010125000000000828
vt 0.9351791378988616 1
vt 0 1
vt 0.06714586210113829 -0.0010125000000000828
vt 0.9351791378988616 -0.0010125000000000828
vt 1.002325 1
vt 0 1
vt 0.1834353878988617 -0.0010125000000000828
vt 0.6845978878988618 -0.0010125000000000828
vt 0.8680332757977234 1
vt 0.31366250000000007 1
vt 0 1
vt 0.15683125000000003 -0.0010125000000000828
vt 0 -0.0010125000000000828
vt 0.48553750000000007 -0.0010125000000000828
vt 0.24276875000000003 1
vt 0.1834353878988617 1
vt 0 -0.0010125000000000828
vt 0.8680332757977234 -0.0010125000000000828
vt 0.6845978878988618 1
vt 0.06714586210113829 1
vt 0 -0.0010125000000000828
vt 1.002325 -0.0010125000000000828
vt 0.9351791378988616 1
vt 0 1
vt 0.06714586210113829 -0.0010125000000000828
vt 0.9351791378988616 -0.0010125000000000828
vt 1.002325 1
vt 0 1
vt 0.1834353878988617 -0.0010125000000000828
vt 0.6845978878988618 -0.0010125000000000828
vt 0.8680332757977234 1
vt 0.31366250000000007 1
vt 0 1
vt 0.15683125000000003 -0.0010125000000000828
vt 0 0.006799999999999917
vt 1.0011625 0.006799999999999917
vt 0.52401875 1
vt 0.1834353878988617 1
vt 0 -0.0010125000000000828
vt 0.8680332757977234 -0.0010125000000000828
vt 0.6845978878988618 1
vt 0.06714586210113829 1
vt 0 -0.0010125000000000828
vt 1.002325 -0.0010125000000000828
vt 0.9351791378988616 1
vt 0 1
vt 0.06714586210113829 -0.0010125000000000828
vt 0.9351791378988616 -0.0010125000000000828
vt 1.002325 1
vt 0 1
vt 0.1834353878988617 -0.0010125000000000828
vt 0.6845978878988618 -0.0010125000000000828
vt 0.8680332757977234 1
vt 0.31366250000000007 1
vt 0 1
vt 0.15683125000000003 -0.0010125000000000828
vt 0 -0.0010125000000000828
vt 0.9933500000000001 -0.0010125000000000828
vt 0.49667500000000003 1
vt 0.1834353878988617 1
vt 0 -0.0010125000000000828
vt 0.8680332757977234 -0.0010125000000000828
vt 0.6845978878988618 1
vt 0.06714586210113829 1
vt 0 -0.0010125000000000828
vt 1.002325 -0.0010125000000000828
vt 0.9351791378988616 1
vt 0 1
vt 0.06714586210113829 -0.0010125000000000828
vt 0.9351791378988616 -0.0010125000000000828
vt 1.002325 1
vt 0 1
vt 0.1834353878988617 -0.0010125000000000828
vt 0.6845978878988618 -0.0010125000000000828
vt 0.8680332757977234 1
vt 0.31366250000000007 1
vt 0 1
vt 0.15683125000000003 -0.0010125000000000828
vt 0 0.006799999999999917
vt 0.9855375 0.006799999999999917
vt 0.49276875 1
vt 0.1834353878988617 1
vt 0 -0.0010125000000000828
vt 0.8680332757977234 -0.0010125000000000828
vt 0.6845978878988618 1
vt 0.06714586210113829 1
vt 0 -0.0010125000000000828
vt 1.002325 -0.0010125000000000828
vt 0.9351791378988616 1
vt 0 1
vt 0.06714586210113829 -0.0010125000000000828
vt 0.9351791378988616 -0.0010125000000000828
vt 1.002325 1
vt 0 1
vt 0.1834353878988617 -0.0010125000000000828
vt 0.6845978878988618 -0.0010125000000000828
vt 0.8680332757977234 1
vt 0.31366250000000007 1
vt 0 1
vt 0.15683125000000003 -0.0010125000000000828
vt 0 -0.0010125000000000828
vt 0.5402250000000001 -0.0010125000000000828
vt 0.27011250000000003 1
vt 0.1834353878988617 1
vt 0 -0.0010125000000000828
vt 0.8680332757977234 -0.0010125000000000828
vt 0.6845978878988618 1
vt 0.06714586210113829 1
vt 0 -0.0010125000000000828
vt 1.002325 -0.0010125000000000828
vt 0.9351791378988616 1
vt 0 1
vt 0.06714586210113829 -0.0010125000000000828
vt 0.9351791378988616 -0.0010125000000000828
vt 1.002325 1
vt 0 1
vt 0.1834353878988617 -0.0010125000000000828
vt 0.6845978878988618 -0.0010125000000000828
vt 0.8680332757977234 1
vt 0.31366250000000007 1
vt 0 1
vt 0.15683125000000003 -0.0010125000000000828
vt 0 0.006799999999999917
vt 0.602725 0.006799999999999917
vt 0.3013625 1
vt 0.1834353878988617 1
vt 0 -0.0010125000000000828
vt 0.8680332757977234 -0.0010125000000000828
vt 0.6845978878988618 1
vt 0.06714586210113829 1
vt 0 -0.0010125000000000828
vt 1.002325 -0.0010125000000000828
vt 0.9351791378988616 1
vt 0 1
vt 0.06714586210113829 -0.0010125000000000828
vt 0.9351791378988616 -0.0010125000000000828
vt 1.002325 1
vt 0 1
vt 0.1834353878988617 -0.0010125000000000828
vt 0.6845978878988618 -0.0010125000000000828
vt 0.8680332757977234 1
vt 0.31366250000000007 1
vt 0 1
vt 0.15683125000000003 -0.0010125000000000828
vn 0.13484509817694934 0.962947141846631 0.23355856119408974
vn 0.3612832041643996 0.691301515660727 0.6257608655340204
vn 0.4843383436819084 0.24832534175525012 0.8388986193108222
vn 0.4843383436819091 -0.2483253417552495 0.8388986193108222
vn 0.36128320416439974 -0.6913015156607271 0.6257608655340202
vn 0.13484509817694934 -0.962947141846631 0.23355856119408974
vn 0.23355856119408971 0.962947141846631 0.1348450981769494
vn 0.6257608655340204 0.6913015156607272 0.3612832041643995
vn 0.8388986193108223 0.2483253417552498 0.4843383436819084
vn 0.838898619310822 -0.24832534175524992 0.4843383436819088
vn 0.6257608655340204 -0.6913015156607271 0.36128320416439985
vn 0.23355856119408971 -0.962947141846631 0.1348450981769494
vn 0.2696901963538988 0.962947141846631 0
vn 0.7225664083287996 0.6913015156607271 0
vn 0.9686766873638173 0.24832534175525015 0
vn 0.9686766873638174 -0.24832534175524945 0
vn 0.7225664083287995 -0.6913015156607272 0
vn 0.2696901963538988 -0.962947141846631 0
vn 0.23355856119408977 0.9629471418466311 -0.13484509817694937
vn 0.6257608655340203 0.6913015156607271 -0.3612832041643997
vn 0.8388986193108224 0.24832534175525012 -0.4843383436819082
vn 0.8388986193108221 -0.24832534175524945 -0.48433834368190914
vn 0.6257608655340202 -0.6913015156607272 -0.3612832041643998
vn 0.23355856119408977 -0.9629471418466311 -0.13484509817694937
vn 0.1348450981769494 0.962947141846631 -0.23355856119408971
vn 0.36128320416439963 0.6913015156607271 -0.6257608655340204
vn 0.4843383436819082 0.24832534175525034 -0.8388986193108224
vn 0.48433834368190887 -0.24832534175525042 -0.8388986193108219
vn 0.3612832041644 -0.6913015156607268 -0.6257608655340205
vn 0.1348450981769494 -0.962947141846631 -0.23355856119408971
vn 1.4375065284664094e-16 0.962947141846631 -0.26969019635389874
vn 4.67312314710072e-16 0.691301515660727 -0.7225664083287998
vn 5.163254285415078e-16 0.24832534175525012 -0.9686766873638172
vn 8.71371058153828e-16 -0.24832534175524973 -0.9686766873638172
vn 4.856452032482768e-16 -0.691301515660727 -0.7225664083287997
vn 1.4375065284664094e-16 -0.962947141846631 -0.26969019635389874
vn -0.13484509817694929 0.962947141846631 -0.23355856119408977
vn -0.3612832041643995 0.691301515660727 -0.6257608655340205
vn -0.4843383436819081 0.24832534175525015 -0.8388986193108227
vn -0.48433834368190887 -0.24832534175524942 -0.8388986193108222
vn -0.36128320416439963 -0.6913015156607271 -0.6257608655340204
vn -0.13484509817694926 -0.962947141846631 -0.23355856119408974
vn -0.23355856119408971 0.9629471418466311 -0.1348450981769494
vn -0.6257608655340204 0.6913015156607271 -0.36128320416439974
vn -0.8388986193108225 0.24832534175525017 -0.4843383436819078
vn -0.8388986193108223 -0.24832534175525034 -0.48433834368190853
vn -0.6257608655340205 -0.6913015156607268 -0.3612832041643999
vn -0.23355856119408971 -0.9629471418466311 -0.1348450981769494
vn -0.2696901963538988 0.9629471418466311 0
vn -0.7225664083287997 0.6913015156607271 0
vn -0.9686766873638173 0.24832534175524965 -5.163254285415085e-16
vn -0.9686766873638172 -0.24832534175524973 -8.713710581538284e-16
vn -0.7225664083287999 -0.6913015156607267 0
vn -0.2696901963538988 -0.9629471418466311 0
vn -0.2335585611940897 0.962947141846631 0.13484509817694937
vn -0.6257608655340207 0.691301515660727 0.3612832041643995
vn -0.8388986193108228 0.2483253417552501 0.4843383436819079
vn -0.8388986193108224 -0.24832534175524948 0.4843383436819088
vn -0.6257608655340202 -0.6913015156607271 0.36128320416439985
vn -0.23355856119408971 -0.962947141846631 0.1348450981769494
vn -0.13484509817694948 0.962947141846631 0.23355856119408971
vn -0.3612832041643997 0.6913015156607271 0.6257608655340202
vn -0.4843383436819083 0.24832534175525034 0.8388986193108224
vn -0.4843383436819091 -0.24832534175525048 0.8388986193108218
vn -0.36128320416439996 -0.6913015156607268 0.6257608655340203
vn -0.13484509817694948 -0.962947141846631 0.23355856119408971
vn 0 0.962947141846631 0.2696901963538988
vn 0 0.6913015156607271 0.7225664083287997
vn 0 0.24832534175525012 0.9686766873638172
vn 0 -0.2483253417552494 0.9686766873638174
vn 0 -0.6913015156607271 0.7225664083287996
vn 0 -0.962947141846631 0.2696901963538988
usemtl m_9ab3606d-1911-638b-9ce9-8809f325813d
f 3/1/1 8/2/1 2/3/1
f 3/4/2 4/5/2 9/6/2 8/7/2
f 4/8/3 5/9/3 10/10/3 9/11/3
f 5/12/4 6/13/4 11/14/4 10/15/4
f 6/16/5 7/17/5 12/18/5 11/19/5
f 12/20/6 7/21/6 1/22/6
f 8/23/7 13/24/7 2/25/7
f 8/26/8 9/27/8 14/28/8 13/29/8
f 9/30/9 10/31/9 15/32/9 14/33/9
f 10/34/10 11/35/10 16/36/10 15/37/10
f 11/38/11 12/39/11 17/40/11 16/41/11
f 17/42/12 12/43/12 1/44/12
f 13/45/13 18/46/13 2/47/13
f 13/48/14 14/49/14 19/50/14 18/51/14
f 14/52/15 15/53/15 20/54/15 19/55/15
f 15/56/16 16/57/16 21/58/16 20/59/16
f 16/60/17 17/61/17 22/62/17 21/63/17
f 22/64/18 17/65/18 1/66/18
f 18/67/19 23/68/19 2/69/19
f 18/70/20 19/71/20 24/72/20 23/73/20
f 19/74/21 20/75/21 25/76/21 24/77/21
f 20/78/22 21/79/22 26/80/22 25/81/22
f 21/82/23 22/83/23 27/84/23 26/85/23
f 27/86/24 22/87/24 1/88/24
f 23/89/25 28/90/25 2/91/25
f 23/92/26 24/93/26 29/94/26 28/95/26
f 24/96/27 25/97/27 30/98/27 29/99/27
f 25/100/28 26/101/28 31/102/28 30/103/28
f 26/104/29 27/105/29 32/106/29 31/107/29
f 32/108/30 27/109/30 1/110/30
f 28/111/31 33/112/31 2/113/31
f 28/114/32 29/115/32 34/116/32 33/117/32
f 29/118/33 30/119/33 35/120/33 34/121/33
f 30/122/34 31/123/34 36/124/34 35/125/34
f 31/126/35 32/127/35 37/128/35 36/129/35
f 37/130/36 32/131/36 1/132/36
f 33/133/37 38/134/37 2/135/37
f 33/136/38 34/137/38 39/138/38 38/139/38
f 34/140/39 35/141/39 40/142/39 39/143/39
f 35/144/40 36/145/40 41/146/40 40/147/40
f 36/148/41 37/149/41 42/150/41 41/151/41
f 42/152/42 37/153/42 1/154/42
f 38/155/43 43/156/43 2/157/43
f 38/158/44 39/159/44 44/160/44 43/161/44
f 39/162/45 40/163/45 45/164/45 44/165/45
f 40/166/46 41/167/46 46/168/46 45/169/46
f 41/170/47 42/171/47 47/172/47 46/173/47
f 47/174/48 42/175/48 1/176/48
f 43/177/49 48/178/49 2/179/49
f 43/180/50 44/181/50 49/182/50 48/183/50
f 44/184/51 45/185/51 50/186/51 49/187/51
f 45/188/52 46/189/52 51/190/52 50/191/52
f 46/192/53 47/193/53 52/194/53 51/195/53
f 52/196/54 47/197/54 1/198/54
f 48/199/55 53/200/55 2/201/55
f 48/202/56 49/203/56 54/204/56 53/205/56
f 49/206/57 50/207/57 55/208/57 54/209/57
f 50/210/58 51/211/58 56/212/58 55/213/58
f 51/214/59 52/215/59 57/216/59 56/217/59
f 57/218/60 52/219/60 1/220/60
f 53/221/61 58/222/61 2/223/61
f 53/224/62 54/225/62 59/226/62 58/227/62
f 54/228/63 55/229/63 60/230/63 59/231/63
f 55/232/64 56/233/64 61/234/64 60/235/64
f 56/236/65 57/237/65 62/238/65 61/239/65
f 62/240/66 57/241/66 1/242/66
f 58/243/67 3/244/67 2/245/67
f 58/246/68 59/247/68 4/248/68 3/249/68
f 59/250/69 60/251/69 5/252/69 4/253/69
f 60/254/70 61/255/70 6/256/70 5/257/70
f 61/258/71 62/259/71 7/260/71 6/261/71
f 7/262/72 62/263/72 1/264/72