# Blender 4.0.2
# www.blender.org
mtllib soccerGoalPhysicsCloth.mtl
o soccerGoal
v 7.372215 -1.179650 1.501673
v 7.388110 -1.192150 1.509650
v 7.388110 -1.179650 1.510350
v 7.371286 -1.192150 1.517961
v 7.370784 -1.179650 1.517550
v 7.371691 -1.192150 1.502023
v -0.100982 1.319283 -0.045972
v -0.055939 1.273238 -0.061258
v -0.003471 1.220207 -0.028942
v -0.008918 1.225643 0.035357
v -0.055939 1.273238 0.061258
v -0.100982 1.319283 0.045972
v -0.122348 1.340695 0.000000
v -0.116524 -1.221130 -0.029986
v -0.064537 -1.221130 -0.061239
v -0.019835 -1.221130 -0.046332
v 0.001891 -1.221130 -0.000000
v -0.019835 -1.221130 0.046332
v -0.064537 -1.221130 0.061239
v -0.111076 -1.221130 0.036095
v 7.435815 1.335475 -0.028705
v 7.387321 1.282511 -0.061107
v 7.340706 1.237349 -0.047061
v 7.318591 1.215902 -0.005870
v 7.335506 1.231910 0.043302
v 7.387321 1.282511 0.061106
v 7.432069 1.330663 0.034104
v 7.407321 -1.224543 -0.054935
v 7.354418 -1.224543 -0.056761
v 7.317358 -1.224543 -0.006166
v 7.339680 -1.224543 0.046339
v 7.402699 -1.224543 0.060290
v 7.443239 -1.224543 -0.006238
v -0.039207 -1.209164 1.494499
v -0.059970 -1.224123 1.513984
v -0.076757 -1.203172 1.532254
v -0.054897 -1.186210 1.508915
v -0.042067 -1.216829 -0.004724
v -0.065446 -1.221934 -0.004724
v -0.076292 -1.201260 -0.004724
v -0.052069 -1.186350 -0.004724
v 7.363970 -1.210913 1.495108
v 7.385652 -1.224156 1.516807
v 7.399899 -1.199256 1.531063
v 7.375470 -1.186872 1.506614
v 7.365942 -1.216821 -0.006700
v 7.389416 -1.221933 -0.006700
v 7.400294 -1.201262 -0.006700
v 7.375978 -1.186348 -0.006700
v -1.373319 -1.280000 3.480852
v -1.375832 1.280000 3.481591
v -1.355236 1.280000 3.496792
v -1.355236 -1.280000 3.503207
v -1.375832 -1.280000 3.518409
v -1.373319 1.280000 3.519148
v -1.394200 1.280000 3.499370
v -1.394200 -1.280000 3.500630
v 8.716209 -1.280000 3.499370
v 8.713132 1.280000 3.491809
v 8.703841 1.280000 3.519226
v 8.695329 -1.280000 3.519148
v 8.677244 -1.280000 3.496793
v 8.677452 1.280000 3.501271
v 8.697842 -1.280000 3.481591
v 8.693515 1.280000 3.481457
v -1.374676 1.277552 3.506056
v -0.053285 1.272421 1.502577
v -0.053874 1.278316 1.502187
v -1.377843 1.273565 3.503964
v 7.376995 1.280167 1.508161
v 8.707350 1.281689 3.505701
v 8.708088 1.275756 3.505208
v 7.372382 1.277418 1.511241
v -0.048916 1.281127 0.056643
v -0.048916 1.274473 0.069143
v -0.060792 1.268712 0.069143
v -0.055188 1.268712 0.056643
v -0.067064 1.274473 0.056643
v -0.060792 1.286888 0.056643
v -0.067064 1.281127 0.069143
v -0.055188 1.286888 0.069143
v 7.386474 1.281127 0.056643
v 7.386474 1.274473 0.069143
v 7.374598 1.268712 0.069143
v 7.380202 1.268712 0.056643
v 7.368326 1.274473 0.056643
v 7.374598 1.286888 0.056643
v 7.368326 1.281127 0.069143
v 7.380202 1.286888 0.069143
v -0.056314 -1.192135 1.499865
v -0.051749 -1.179635 1.501289
v -0.051749 -1.192135 1.518711
v -0.056314 -1.179635 1.520134
v -0.067504 -1.192135 1.511244
v -0.067504 -1.179635 1.508756
vn -0.0000 1.0000 -0.0000
vn -0.4362 0.5359 -0.7229
vn -0.8898 -0.0032 -0.4563
vn -0.5555 0.8315 0.0001
vn 0.4505 0.0031 -0.8928
vn -0.4364 0.5358 0.7228
vn -0.8369 -0.0027 0.5474
vn -0.0865 -0.0014 0.9962
vn 0.5032 -0.5918 -0.6297
vn 0.6644 -0.0022 -0.7474
vn -0.0734 0.0246 -0.9970
vn -0.0791 0.0335 0.9963
vn 0.6645 -0.0017 0.7473
vn -0.1092 -0.0018 -0.9940
vn 0.4349 -0.5196 0.7355
vn 1.0000 -0.0028 0.0002
vn 0.5185 0.7212 0.4594
vn 0.1891 0.1348 0.9727
vn -0.2854 -0.3831 0.8785
vn -0.6249 -0.7704 -0.1262
vn -0.2575 -0.3175 -0.9126
vn 0.2058 0.1567 -0.9660
vn 0.5260 0.7708 -0.3593
vn 0.4660 -0.0028 -0.8848
vn -0.4368 -0.0024 -0.8995
vn 0.9990 -0.0044 -0.0445
vn -0.9934 -0.0018 -0.1146
vn 0.3676 -0.0032 0.9300
vn -0.2140 -0.9540 0.2101
vn -0.3325 -0.9431 -0.0020
vn 0.7788 -0.6273 -0.0039
vn -0.6850 0.1488 0.7131
vn -0.9535 0.3014 -0.0006
vn 0.6469 -0.3930 -0.6535
vn 0.2048 0.9788 -0.0026
vn -0.0806 0.9932 0.0843
vn 0.6723 0.3137 0.6705
vn 0.2813 -0.9206 0.2709
vn 0.0152 0.9997 0.0182
vn -0.5879 -0.5455 -0.5974
vn -0.7944 -0.6074 -0.0026
vn 0.9450 0.3270 -0.0000
vn -0.2109 0.9775 -0.0018
vn 0.7775 -0.0016 -0.6289
vn 0.5938 -0.0008 0.8046
vn 0.6955 -0.0013 -0.7185
vn 0.6877 -0.0023 0.7260
vn -0.7775 -0.0010 0.6289
vn -0.5938 -0.0010 -0.8046
vn -0.0000 -1.0000 -0.0000
vn 0.8290 0.1190 0.5465
vn -0.8280 -0.1190 -0.5479
vn 0.3686 -0.8960 -0.2477
vn -0.3699 0.8960 0.2457
vn 0.4283 0.8830 -0.1921
vn 0.8679 -0.4384 -0.2334
vn -0.4283 -0.8830 -0.1921
vn -0.8679 0.4384 -0.2334
vn 0.4283 0.8830 -0.1920
vn -0.4283 -0.8830 -0.1920
vn 0.9234 -0.3118 -0.2237
vn -0.4146 -0.2510 0.8747
vn -0.7062 -0.1382 -0.6944
vn 0.4135 -0.0022 0.9105
vn -0.9983 -0.0009 -0.0576
vn -0.6585 -0.0009 0.7526
vn 0.3270 -0.9450 -0.0007
vn -0.6914 0.0004 0.7225
vn 0.5938 0.0008 -0.8046
vn 0.7775 0.0016 0.6289
vn -0.6914 -0.0004 -0.7225
vn 0.4667 0.0007 -0.8844
vn 0.9471 0.0021 0.3209
vn -0.5625 0.0018 0.8268
vn -0.7768 0.0012 -0.6297
vn -0.0000 -0.0000 1.0000
vn 0.6038 -0.6895 0.4000
vn -0.6049 0.6895 -0.3984
vn 0.8231 0.1479 -0.5483
vn -0.8217 -0.1479 0.5503
vn 0.8679 0.4384 0.2334
vn 0.4283 -0.8830 0.1921
vn -0.8679 -0.4384 0.2334
vn -0.4283 0.8830 0.1921
vn -0.0000 -0.0000 -1.0000
vn 0.4283 -0.8830 0.1920
vn -0.4283 0.8830 0.1920
vn 0.9234 0.3118 0.2237
vn -0.7062 0.1382 0.6944
vn -0.4146 0.2510 -0.8747
vt 0.137743 0.427998
vt 0.117544 0.094971
vt 0.430563 0.237652
vt 0.000000 0.000000
vt 0.749694 0.500000
vt 0.987183 0.500000
vt 0.981567 1.000000
vt 0.739969 1.000000
vt 0.774954 1.000000
vt 0.725046 0.500000
vt 0.959580 0.500000
vt 0.508820 1.000000
vt 0.489278 0.500000
vt 0.823016 1.000000
vt 0.754128 0.500000
vt 0.967552 0.500000
vt 0.559047 1.000000
vt 0.489564 0.500000
vt 0.260437 1.000000
vt 0.222885 0.500000
vt 0.044852 1.000000
vt 0.026219 0.500000
vt 0.735905 0.033985
vt 0.542578 0.285734
vt 0.763873 0.476204
vt 0.960413 0.255410
vt 0.896943 1.000000
vt 0.516977 0.500000
vt 0.900894 0.500000
vt 0.391899 1.000000
vt 0.065390 0.500000
vt 0.519794 1.000000
vt 0.338029 0.500000
vt 0.844350 0.500000
vt 0.061333 1.000000
vt 0.000000 0.500000
vt 0.943079 1.000000
vt 0.811654 0.500000
vt 0.980282 0.500000
vt 0.688349 1.000000
vt 0.540932 0.500000
vt 0.459068 1.000000
vt 0.311647 0.500000
vt 0.188346 1.000000
vt 0.056921 0.500000
vt 0.943077 1.000000
vt 0.811655 0.500000
vt 0.980285 0.500000
vt 0.688349 1.000000
vt 0.540933 0.500000
vt 0.459067 1.000000
vt 0.311651 0.500000
vt 0.188345 1.000000
vt 0.056923 0.500000
vt 0.889616 1.000000
vt 0.597252 0.500000
vt 0.911982 0.500000
vt 0.529100 1.000000
vt 0.269682 0.500000
vt 0.230318 1.000000
vt 0.028533 0.500000
vt 0.397585 0.500000
vt 0.387417 1.000000
vt 0.102744 0.500000
vt 0.093855 1.000000
vt 0.626265 0.419800
vt 0.930870 0.248879
vt 0.627808 0.086423
vt 0.256369 0.500000
vt 0.243633 1.000000
vt 0.964833 1.000000
vt 0.041309 0.500000
vt 0.028676 1.000000
vt 0.457711 0.282627
vt 0.234799 0.476431
vt 0.040075 0.258547
vt 0.261831 0.034063
vt 0.957711 0.217374
vt 0.734796 0.023570
vt 0.540075 0.241451
vt 0.761829 0.465936
vt 0.453224 0.350283
vt 0.214551 0.469091
vt 0.033985 0.235903
vt 0.321352 0.066855
vt 0.973781 1.000000
vt 0.051067 0.332005
vt 0.194932 0.038326
vt 0.448936 0.167998
vt 0.305066 0.461674
vt 0.012406 1.000000
vt 0.929457 1.000000
vt 0.019718 1.000000
vt 0.948933 0.332006
vt 0.805067 0.038327
vt 0.551062 0.168003
vt 0.694932 0.461675
vt 0.051072 0.332003
vt 0.194929 0.038322
vt 0.448930 0.168001
vt 0.305073 0.461677
vt 0.019715 1.000000
vt 0.948928 0.332003
vt 0.805071 0.038322
vt 0.551070 0.168001
vt 0.694927 0.461677
vt 0.042330 1.000000
vt 0.035026 0.276760
vt 0.286065 0.056119
vt 0.353110 0.397647
vt 0.535026 0.223240
vt 0.786065 0.443881
vt 0.853110 0.102353
s 0
usemtl Material.009
f 1/1/1 5/2/1 3/3/1
s 1
f 7/4/2 14/4/3 13/4/4
s 0
f 2/5/5 6/6/5 1/7/5 3/8/5
s 1
f 12/4/6 20/4/7 19/4/8
f 9/4/9 16/4/10 8/4/11
f 11/4/12 19/4/8 18/4/13
f 8/4/11 15/4/14 7/4/2
f 10/4/15 18/4/13 17/4/16
f 13/4/4 14/4/3 20/4/7
f 12/4/6 27/4/17 13/4/4
f 11/4/12 26/4/18 12/4/6
f 10/4/15 25/4/19 11/4/12
f 9/4/9 24/4/20 10/4/15
f 23/4/21 9/4/9 8/4/11
f 22/4/22 8/4/11 7/4/2
f 21/4/23 7/4/2 13/4/4
f 22/4/22 28/4/24 29/4/25
f 27/4/17 33/4/26 21/4/23
f 24/4/20 30/4/27 25/4/19
f 21/4/23 33/4/26 28/4/24
f 26/4/18 32/4/28 27/4/17
f 23/4/21 29/4/25 30/4/27
f 35/4/29 39/4/30 38/4/31
f 36/4/32 40/4/33 39/4/30
f 34/4/34 41/4/35 37/4/36
f 36/4/32 44/4/37 37/4/36
f 43/4/38 36/4/32 35/4/29
f 37/4/36 45/4/39 34/4/34
f 42/4/40 46/4/41 43/4/38
f 44/4/37 48/4/42 49/4/43
s 0
f 52/9/44 53/10/44 50/11/44
f 55/12/45 54/13/45 53/10/45
f 59/14/46 58/15/46 64/16/46
f 60/17/47 61/18/47 58/15/47
f 63/19/48 62/20/48 61/18/48
f 65/21/49 64/22/49 62/20/49
f 61/23/50 62/24/50 64/25/50 58/26/50
f 66/27/51 67/28/51 68/29/51
f 69/30/52 68/31/52 67/28/52
f 72/32/53 73/33/53 70/34/53
f 71/35/54 70/36/54 73/33/54
f 81/37/55 74/38/55 79/39/55
f 75/40/56 77/41/56 74/38/56
f 76/42/57 78/43/57 77/41/57
f 80/44/58 79/45/58 78/43/58
f 89/46/59 82/47/59 87/48/59
f 83/49/56 85/50/56 82/47/56
f 84/51/60 86/52/60 85/50/60
f 88/53/58 87/54/58 86/52/58
f 91/55/61 92/56/61 90/57/61
f 93/58/62 94/59/62 92/56/62
f 95/60/63 90/61/63 94/59/63
f 4/62/64 2/5/64 3/8/64 5/63/64
f 6/64/65 4/62/65 5/63/65 1/65/65
s 1
f 32/4/28 26/4/18 25/4/19 31/4/66
s 0
f 6/66/50 2/67/50 4/68/50
s 1
f 12/4/6 13/4/4 20/4/7
f 9/4/9 17/4/16 16/4/10
f 11/4/12 12/4/6 19/4/8
f 8/4/11 16/4/10 15/4/14
f 10/4/15 11/4/12 18/4/13
f 7/4/2 15/4/14 14/4/3
f 9/4/9 10/4/15 17/4/16
f 13/4/4 27/4/17 21/4/23
f 12/4/6 26/4/18 27/4/17
f 11/4/12 25/4/19 26/4/18
f 10/4/15 24/4/20 25/4/19
f 23/4/21 24/4/20 9/4/9
f 22/4/22 23/4/21 8/4/11
f 21/4/23 22/4/22 7/4/2
f 40/4/33 36/4/32 37/4/36 41/4/35
f 22/4/22 21/4/23 28/4/24
f 25/4/19 30/4/27 31/4/66
f 27/4/17 32/4/28 33/4/26
f 24/4/20 23/4/21 30/4/27
f 23/4/21 22/4/22 29/4/25
f 35/4/29 34/4/34 42/4/40 43/4/38
f 34/4/34 35/4/29 38/4/31
f 35/4/29 36/4/32 39/4/30
f 34/4/34 38/4/31 41/4/35
f 37/4/36 44/4/37 45/4/39
f 43/4/38 44/4/37 36/4/32
f 48/4/42 44/4/37 43/4/38 47/4/67
f 34/4/34 45/4/39 42/4/40
f 49/4/43 46/4/41 42/4/40 45/4/39
s 0
f 57/69/68 54/13/68 55/12/68 56/70/68
s 1
f 45/4/39 44/4/37 49/4/43
f 43/4/38 46/4/41 47/4/67
s 0
f 51/71/69 52/9/69 50/11/69
f 52/9/70 55/12/70 53/10/70
f 50/72/71 57/69/71 56/70/71 51/73/71
f 52/74/1 51/75/1 56/76/1 55/77/1
f 53/78/50 54/79/50 57/80/50 50/81/50
f 59/82/1 65/83/1 63/84/1 60/85/1
f 65/86/72 59/14/72 64/16/72
f 59/14/73 60/17/73 58/15/73
f 60/17/74 63/19/74 61/18/74
f 63/19/75 65/21/75 62/20/75
f 80/87/76 76/88/76 75/89/76 81/90/76
f 67/28/77 66/27/77 69/30/77
f 69/30/78 66/91/78 68/31/78
f 71/92/79 72/32/79 70/34/79
f 72/32/80 71/35/80 73/33/80
f 81/37/81 75/40/81 74/38/81
f 75/40/82 76/42/82 77/41/82
f 76/42/83 80/44/83 78/43/83
f 80/44/84 81/93/84 79/45/84
f 74/94/85 77/95/85 78/96/85 79/97/85
f 88/98/76 84/99/76 83/100/76 89/101/76
f 89/46/81 83/49/81 82/47/81
f 83/49/86 84/51/86 85/50/86
f 84/51/83 88/53/83 86/52/83
f 88/53/87 89/102/87 87/54/87
f 82/103/85 85/104/85 86/105/85 87/106/85
f 91/55/88 93/58/88 92/56/88
f 93/58/89 95/60/89 94/59/89
f 95/60/90 91/107/90 90/61/90
f 95/108/1 93/109/1 91/110/1
f 94/111/50 90/112/50 92/113/50
o NetCube
v -0.060600 -1.211004 1.511990
v -0.060600 1.278996 1.511990
v -0.060600 -1.211004 0.011990
v -0.060600 1.278996 0.011990
v 7.379401 -1.211004 1.511990
v 7.379401 1.278996 1.511990
v 7.379401 -1.211004 0.011990
v 7.379401 1.278996 0.011990
v -0.060600 -1.211004 0.311990
v -0.060600 -1.211004 0.611990
v -0.060600 -1.211004 0.911990
v -0.060600 -1.211004 1.211990
v -0.050406 -0.716615 1.504822
v -0.045128 -0.221183 1.509212
v -0.046000 0.275927 1.512508
v -0.052428 0.775640 1.513276
v -0.045307 1.264785 1.211586
v -0.041542 1.259867 0.911565
v -0.045930 1.261233 0.611754
v -0.054403 1.266901 0.312062
v -0.060600 0.780996 0.011990
v -0.060600 0.282996 0.011990
v -0.060600 -0.215004 0.011990
v -0.060600 -0.713004 0.011990
v 1.427400 1.278996 0.011990
v 2.915400 1.278996 0.011990
v 4.403401 1.278996 0.011990
v 5.891401 1.278996 0.011990
v 7.379401 0.780996 0.011990
v 7.379401 0.282996 0.011990
v 7.379401 -0.215004 0.011990
v 7.379401 -0.713004 0.011990
v 7.379401 -1.211004 1.211990
v 7.379401 -1.211004 0.911990
v 7.379401 -1.211004 0.611990
v 7.379401 -1.211004 0.311990
v 7.373203 1.266901 0.312062
v 7.364730 1.261234 0.611754
v 7.360343 1.259867 0.911565
v 7.364108 1.264785 1.211586
v 7.371229 0.775640 1.513276
v 7.364801 0.275927 1.512508
v 7.363929 -0.221183 1.509212
v 7.369207 -0.716615 1.504822
v 1.427400 -1.211004 1.511990
v 2.915400 -1.211004 1.511990
v 4.403401 -1.211004 1.511990
v 5.891401 -1.211004 1.511990
v 5.889608 1.201582 1.444052
v 4.403155 1.153336 1.401708
v 2.915646 1.153336 1.401708
v 1.429193 1.201582 1.444052
v 5.890965 1.142883 0.280936
v 5.891121 1.058899 0.570093
v 5.890686 1.038557 0.870295
v 5.891047 1.087144 1.166841
v 4.403501 1.108920 0.262148
v 4.404125 0.992886 0.540784
v 4.404541 0.958037 0.839849
v 4.404670 1.017439 1.134263
v 2.915300 1.108920 0.262148
v 2.914675 0.992886 0.540784
v 2.914260 0.958037 0.839849
v 2.914130 1.017439 1.134263
v 1.427835 1.142883 0.280936
v 1.427679 1.058898 0.570093
v 1.428115 1.038556 0.870295
v 1.427752 1.087144 1.166841
v 5.890931 -0.742368 1.669395
v 4.403871 -0.761056 1.720418
v 2.914930 -0.761056 1.720418
v 1.427870 -0.742368 1.669395
v 5.891332 -0.249600 1.716864
v 4.404571 -0.270272 1.793093
v 2.914230 -0.270272 1.793093
v 1.427469 -0.249600 1.716863
v 5.890577 0.245201 1.691834
v 4.404161 0.223488 1.743618
v 2.914639 0.223488 1.743618
v 1.428223 0.245201 1.691833
v 5.890797 0.733059 1.604784
v 4.403996 0.699190 1.602246
v 2.914804 0.699190 1.602246
v 1.428004 0.733059 1.604783
v 7.332775 -0.716877 0.308611
v 7.302531 -0.720889 0.607870
v 7.296027 -0.721859 0.908931
v 7.317229 -0.719235 1.208910
v 7.347708 -0.220771 0.310074
v 7.331212 -0.225263 0.609811
v 7.326412 -0.226369 0.910461
v 7.335343 -0.223572 1.210510
v 7.373406 0.275099 0.311428
v 7.374270 0.269429 0.611618
v 7.370643 0.268142 0.912432
v 7.362434 0.272373 1.212594
v 7.387969 0.771231 0.311499
v 7.392488 0.765547 0.611994
v 7.389890 0.764177 0.913080
v 7.381290 0.768998 1.213739
v 0.001572 -0.719235 1.208910
v 0.022775 -0.721859 0.908931
v 0.016269 -0.720889 0.607870
v -0.013973 -0.716877 0.308611
v -0.016542 -0.223572 1.210510
v -0.007612 -0.226369 0.910461
v -0.012412 -0.225263 0.609811
v -0.028908 -0.220771 0.310075
v -0.043634 0.272373 1.212593
v -0.051841 0.268142 0.912432
v -0.055470 0.269429 0.611618
v -0.054605 0.275099 0.311428
v -0.062489 0.768998 1.213739
v -0.071089 0.764177 0.913080
v -0.073687 0.765547 0.611994
v -0.069167 0.771231 0.311499
vn -0.9999 0.0149 -0.0034
vn 0.9999 0.0090 -0.0090
vn -0.0012 0.1644 0.9864
vn 0.0756 0.9737 -0.2150
vn -0.0756 0.9737 -0.2150
vn -0.0255 0.9083 -0.4176
vn -0.0000 0.8915 -0.4530
vn 0.0255 0.9083 -0.4176
vn -0.0430 0.9669 0.2514
vn -0.1121 0.9826 0.1480
vn -0.1433 0.9891 0.0346
vn -0.1313 0.9875 -0.0877
vn -0.0130 0.8613 0.5080
vn -0.0370 0.9425 0.3321
vn -0.0509 0.9945 0.0916
vn -0.0459 0.9827 -0.1795
vn -0.0000 0.8270 0.5622
vn -0.0000 0.9232 0.3844
vn -0.0000 0.9933 0.1157
vn -0.0000 0.9802 -0.1978
vn 0.0130 0.8613 0.5080
vn 0.0370 0.9425 0.3321
vn 0.0509 0.9945 0.0916
vn 0.0459 0.9827 -0.1795
vn 0.0430 0.9669 0.2514
vn 0.1121 0.9826 0.1480
vn 0.1433 0.9891 0.0346
vn 0.1313 0.9875 -0.0877
vn -0.0561 -0.1533 0.9866
vn -0.1259 -0.0514 0.9907
vn -0.1297 0.0217 0.9913
vn -0.0888 0.0861 0.9923
vn 0.0561 -0.1533 0.9866
vn 0.0183 -0.3699 0.9289
vn -0.0000 -0.4203 0.9074
vn -0.0183 -0.3699 0.9289
vn 0.1259 -0.0514 0.9907
vn 0.0440 -0.1212 0.9917
vn -0.0000 -0.1465 0.9892
vn -0.0440 -0.1212 0.9917
vn 0.1297 0.0217 0.9913
vn 0.0418 0.0751 0.9963
vn -0.0000 0.0997 0.9950
vn -0.0418 0.0751 0.9963
vn 0.0888 0.0861 0.9923
vn 0.0118 0.2307 0.9730
vn -0.0000 0.2849 0.9586
vn -0.0118 0.2307 0.9730
vn 0.0012 0.1644 0.9864
vn -0.0241 0.3644 0.9309
vn -0.0000 0.4039 0.9148
vn 0.0241 0.3644 0.9309
vn 0.9936 0.0720 -0.0870
vn 0.9909 -0.0120 -0.1342
vn 0.9983 -0.0278 -0.0513
vn 0.9996 -0.0254 0.0133
vn 0.9958 0.0471 0.0781
vn 0.9909 0.1247 0.0508
vn 0.9868 0.1616 0.0109
vn 0.9886 0.1465 -0.0356
vn 0.9914 -0.0151 0.1303
vn 0.9960 -0.0441 0.0771
vn 0.9981 -0.0595 0.0185
vn 0.9976 -0.0487 -0.0497
vn 0.9977 -0.0259 0.0623
vn 0.9973 -0.0693 0.0248
vn 0.9960 -0.0879 0.0136
vn 0.9974 -0.0718 -0.0004
vn 0.9999 -0.0146 -0.0047
vn 0.9994 -0.0330 -0.0096
vn 0.9992 -0.0377 0.0102
vn 0.9989 -0.0384 0.0285
vn 0.9999 0.0149 -0.0034
vn 0.9991 0.0429 0.0074
vn 0.9983 0.0577 0.0119
vn 0.9989 0.0471 0.0073
vn -0.9958 0.0471 0.0781
vn -0.9914 -0.0151 0.1303
vn -0.9977 -0.0259 0.0623
vn -0.9999 -0.0146 -0.0047
vn -0.9936 0.0720 -0.0870
vn -0.9886 0.1465 -0.0356
vn -0.9868 0.1616 0.0109
vn -0.9909 0.1247 0.0508
vn -0.9909 -0.0120 -0.1342
vn -0.9976 -0.0487 -0.0497
vn -0.9981 -0.0595 0.0185
vn -0.9960 -0.0441 0.0771
vn -0.9983 -0.0278 -0.0513
vn -0.9974 -0.0718 -0.0004
vn -0.9960 -0.0879 0.0136
vn -0.9973 -0.0693 0.0248
vn -0.9996 -0.0254 0.0133
vn -0.9989 -0.0384 0.0285
vn -0.9992 -0.0377 0.0102
vn -0.9994 -0.0330 -0.0096
vn -0.9999 0.0090 -0.0090
vn -0.9989 0.0471 0.0073
vn -0.9983 0.0577 0.0119
vn -0.9991 0.0428 0.0074
vt 0.836129 0.853898
vt 1.068092 0.853898
vt 1.068092 1.085861
vt 0.836129 1.085861
vt 0.828859 0.815160
vt 1.041533 0.815160
vt 1.041533 1.027834
vt 0.828859 1.027834
vt 0.821338 0.838101
vt 1.039503 0.838101
vt 1.039503 1.056265
vt 0.821338 1.056265
vt 0.822273 0.801432
vt 1.033265 0.801432
vt 1.033265 1.012424
vt 0.822273 1.012424
vt -0.021695 0.801432
vt 0.189297 0.801432
vt 0.189297 1.012424
vt -0.021695 1.012424
vt 0.400289 0.801432
vt 0.400289 1.012424
vt 0.611281 0.801432
vt 0.611281 1.012424
vt -0.021695 -0.042536
vt 0.189297 -0.042536
vt 0.189297 0.168456
vt -0.021695 0.168456
vt 0.189297 0.379448
vt -0.021695 0.379448
vt 0.189297 0.590440
vt -0.021695 0.590440
vt 0.400289 -0.042536
vt 0.400289 0.168456
vt 0.400289 0.379448
vt 0.400289 0.590440
vt 0.611281 -0.042536
vt 0.611281 0.168456
vt 0.611281 0.379448
vt 0.611281 0.590440
vt 0.822273 -0.042536
vt 0.822273 0.168456
vt 0.822273 0.379448
vt 0.822273 0.590440
vt 1.033265 -0.042536
vt 1.033265 0.168456
vt 1.033265 0.379448
vt 1.033265 0.590440
vt -0.051319 0.838101
vt 0.166845 0.838101
vt 0.166845 1.056265
vt -0.051319 1.056265
vt 0.385009 0.838101
vt 0.385009 1.056265
vt 0.603174 0.838101
vt 0.603174 1.056265
vt -0.051319 -0.034557
vt 0.166845 -0.034557
vt 0.166845 0.183608
vt -0.051319 0.183608
vt 0.166845 0.401772
vt -0.051319 0.401772
vt 0.166845 0.619937
vt -0.051319 0.619937
vt 0.385009 -0.034557
vt 0.385009 0.183608
vt 0.385009 0.401772
vt 0.385009 0.619937
vt 0.603174 -0.034557
vt 0.603174 0.183608
vt 0.603174 0.401772
vt 0.603174 0.619937
vt 0.821338 -0.034557
vt 0.821338 0.183608
vt 0.821338 0.401772
vt 0.821338 0.619937
vt 1.039503 -0.034557
vt 1.039503 0.183608
vt 1.039503 0.401772
vt 1.039503 0.619937
vt -0.021838 0.815160
vt 0.190836 0.815160
vt 0.190836 1.027834
vt -0.021838 1.027834
vt 0.403510 0.815160
vt 0.403510 1.027834
vt 0.616185 0.815160
vt 0.616185 1.027834
vt -0.021838 -0.035537
vt 0.190836 -0.035537
vt 0.190836 0.177137
vt -0.021838 0.177137
vt 0.190836 0.389811
vt -0.021838 0.389811
vt 0.190836 0.602486
vt -0.021838 0.602486
vt 0.403510 -0.035537
vt 0.403510 0.177137
vt 0.403510 0.389811
vt 0.403510 0.602486
vt 0.616185 -0.035537
vt 0.616185 0.177137
vt 0.616185 0.389811
vt 0.616185 0.602486
vt 0.828859 -0.035537
vt 0.828859 0.177137
vt 0.828859 0.389811
vt 0.828859 0.602486
vt 1.041533 -0.035537
vt 1.041533 0.177137
vt 1.041533 0.389811
vt 1.041533 0.602486
vt -0.091726 0.853898
vt 0.140238 0.853898
vt 0.140238 1.085861
vt -0.091726 1.085861
vt 0.372201 0.853898
vt 0.372201 1.085861
vt 0.604165 0.853898
vt 0.604165 1.085861
vt -0.091726 -0.073957
vt 0.140238 -0.073957
vt 0.140238 0.158007
vt -0.091726 0.158007
vt 0.140238 0.389971
vt -0.091726 0.389971
vt 0.140238 0.621934
vt -0.091726 0.621934
vt 0.372201 -0.073957
vt 0.372201 0.158007
vt 0.372201 0.389971
vt 0.372201 0.621934
vt 0.604165 -0.073957
vt 0.604165 0.158007
vt 0.604165 0.389971
vt 0.604165 0.621934
vt 0.836129 -0.073957
vt 0.836129 0.158007
vt 0.836129 0.389971
vt 0.836129 0.621934
vt 1.068092 -0.073957
vt 1.068092 0.158007
vt 1.068092 0.389971
vt 1.068092 0.621934
s 0
usemtl MaterialFondoRed
f 179/122/93 147/123/93 97/124/93 111/125/93
f 140/162/119 167/163/119 108/164/119 96/165/119
f 167/163/120 171/166/120 109/167/120 108/164/120
f 171/166/121 175/168/121 110/169/121 109/167/121
f 175/168/122 179/122/122 111/125/122 110/169/122
f 100/170/123 139/171/123 164/172/123 143/173/123
f 143/173/124 164/172/124 165/174/124 142/175/124
f 142/175/125 165/174/125 166/176/125 141/177/125
f 141/177/126 166/176/126 167/163/126 140/162/126
f 139/171/127 138/178/127 168/179/127 164/172/127
f 164/172/128 168/179/128 169/180/128 165/174/128
f 165/174/129 169/180/129 170/181/129 166/176/129
f 166/176/130 170/181/130 171/166/130 167/163/130
f 138/178/131 137/182/131 172/183/131 168/179/131
f 168/179/132 172/183/132 173/184/132 169/180/132
f 169/180/133 173/184/133 174/185/133 170/181/133
f 170/181/134 174/185/134 175/168/134 171/166/134
f 137/182/135 136/186/135 176/187/135 172/183/135
f 172/183/136 176/187/136 177/188/136 173/184/136
f 173/184/137 177/188/137 178/189/137 174/185/137
f 174/185/138 178/189/138 179/122/138 175/168/138
f 136/186/139 101/190/139 144/191/139 176/187/139
f 176/187/140 144/191/140 145/192/140 177/188/140
f 177/188/141 145/192/141 146/193/141 178/189/141
f 178/189/142 146/193/142 147/123/142 179/122/142
usemtl MaterialSuperiorRed
f 163/126/94 112/127/94 97/128/94 147/129/94
f 135/130/95 151/131/95 144/132/95 101/133/95
f 151/131/96 155/134/96 145/135/96 144/132/96
f 155/134/97 159/136/97 146/137/97 145/135/97
f 159/136/98 163/126/98 147/129/98 146/137/98
f 103/138/99 123/139/99 148/140/99 132/141/99
f 132/141/100 148/140/100 149/142/100 133/143/100
f 133/143/101 149/142/101 150/144/101 134/145/101
f 134/145/102 150/144/102 151/131/102 135/130/102
f 123/139/103 122/146/103 152/147/103 148/140/103
f 148/140/104 152/147/104 153/148/104 149/142/104
f 149/142/105 153/148/105 154/149/105 150/144/105
f 150/144/106 154/149/106 155/134/106 151/131/106
f 122/146/107 121/150/107 156/151/107 152/147/107
f 152/147/108 156/151/108 157/152/108 153/148/108
f 153/148/109 157/152/109 158/153/109 154/149/109
f 154/149/110 158/153/110 159/136/110 155/134/110
f 121/150/111 120/154/111 160/155/111 156/151/111
f 156/151/112 160/155/112 161/156/112 157/152/112
f 157/152/113 161/156/113 162/157/113 158/153/113
f 158/153/114 162/157/114 163/126/114 159/136/114
f 120/154/115 99/158/115 115/159/115 160/155/115
f 160/155/116 115/159/116 114/160/116 161/156/116
f 161/156/117 114/160/117 113/161/117 162/157/117
f 162/157/118 113/161/118 112/127/118 163/126/118
usemtl MaterialLateral1Red
f 195/118/92 135/119/92 101/120/92 136/121/92
f 128/194/143 183/195/143 139/196/143 100/197/143
f 183/195/144 187/198/144 138/199/144 139/196/144
f 187/198/145 191/200/145 137/201/145 138/199/145
f 191/200/146 195/118/146 136/121/146 137/201/146
f 102/202/147 127/203/147 180/204/147 131/205/147
f 131/205/148 180/204/148 181/206/148 130/207/148
f 130/207/149 181/206/149 182/208/149 129/209/149
f 129/209/150 182/208/150 183/195/150 128/194/150
f 127/203/151 126/210/151 184/211/151 180/204/151
f 180/204/152 184/211/152 185/212/152 181/206/152
f 181/206/153 185/212/153 186/213/153 182/208/153
f 182/208/154 186/213/154 187/198/154 183/195/154
f 126/210/155 125/214/155 188/215/155 184/211/155
f 184/211/156 188/215/156 189/216/156 185/212/156
f 185/212/157 189/216/157 190/217/157 186/213/157
f 186/213/158 190/217/158 191/200/158 187/198/158
f 125/214/159 124/218/159 192/219/159 188/215/159
f 188/215/160 192/219/160 193/220/160 189/216/160
f 189/216/161 193/220/161 194/221/161 190/217/161
f 190/217/162 194/221/162 195/118/162 191/200/162
f 124/218/163 103/222/163 132/223/163 192/219/163
f 192/219/164 132/223/164 133/224/164 193/220/164
f 193/220/165 133/224/165 134/225/165 194/221/165
f 194/221/166 134/225/166 135/119/166 195/118/166
usemtl MaterialLateral2Red
f 211/114/91 115/115/91 99/116/91 116/117/91
f 104/226/167 199/227/167 119/228/167 98/229/167
f 199/227/168 203/230/168 118/231/168 119/228/168
f 203/230/169 207/232/169 117/233/169 118/231/169
f 207/232/170 211/114/170 116/117/170 117/233/170
f 96/234/171 108/235/171 196/236/171 107/237/171
f 107/237/172 196/236/172 197/238/172 106/239/172
f 106/239/173 197/238/173 198/240/173 105/241/173
f 105/241/174 198/240/174 199/227/174 104/226/174
f 108/235/175 109/242/175 200/243/175 196/236/175
f 196/236/176 200/243/176 201/244/176 197/238/176
f 197/238/177 201/244/177 202/245/177 198/240/177
f 198/240/178 202/245/178 203/230/178 199/227/178
f 109/242/179 110/246/179 204/247/179 200/243/179
f 200/243/180 204/247/180 205/248/180 201/244/180
f 201/244/181 205/248/181 206/249/181 202/245/181
f 202/245/182 206/249/182 207/232/182 203/230/182
f 110/246/183 111/250/183 208/251/183 204/247/183
f 204/247/184 208/251/184 209/252/184 205/248/184
f 205/248/185 209/252/185 210/253/185 206/249/185
f 206/249/186 210/253/186 211/114/186 207/232/186
f 111/250/187 97/254/187 112/255/187 208/251/187
f 208/251/188 112/255/188 113/256/188 209/252/188
f 209/252/189 113/256/189 114/257/189 210/253/189
f 210/253/190 114/257/190 115/115/190 211/114/190
