# Made in Blockbench 5.1.6
mtllib chimney.mtl

g mat a
v 0.5 -0.5 -0.5
v 0.5 -0.5 0.5
v 0.5 0.5 0.5
v 0.5 0.5 -0.5
v 0.375 -0.5 -0.5
v 0.375 -0.5 0.5
v 0.375 0.5 0.5
v 0.375 0.5 -0.5
v -0.375 -0.5 -0.5
v -0.375 -0.5 0.5
v -0.375 0.5 0.5
v -0.375 0.5 -0.5
v -0.5 -0.5 -0.5
v -0.5 -0.5 0.5
v -0.5 0.5 0.5
v -0.5 0.5 -0.5
v 0.375 -0.5 0.375
v 0.375 -0.5 0.5
v 0.375 0.5 0.5
v 0.375 0.5 0.375
v -0.375 -0.5 0.375
v -0.375 -0.5 0.5
v -0.375 0.5 0.5
v -0.375 0.5 0.375
v 0.375 -0.5 -0.5
v 0.375 -0.5 -0.375
v 0.375 0.5 -0.375
v 0.375 0.5 -0.5
v -0.375 -0.5 -0.5
v -0.375 -0.5 -0.375
v -0.375 0.5 -0.375
v -0.375 0.5 -0.5
v 0.5 0.5 -0.5
v 0.5 -0.5 -0.5
v -0.5 0.5 -0.5
v -0.5 -0.5 -0.5
v 0.5 -0.5 0.5
v 0.5 0.5 0.5
v -0.5 -0.5 0.5
v -0.5 0.5 0.5
v 0.375 -0.5 0.375
v 0.375 -0.5 -0.375
v 0.375 0.5 0.375
v 0.375 0.5 -0.375
v -0.375 0.5 0.375
v -0.375 0.5 -0.375
v -0.375 -0.5 0.375
v -0.375 -0.5 -0.375
vt 1 0
vt 0 0
vt 0 1
vt 1 1
vt 0 1
vt 0 0
vt 0.125 0
vt 0.125 1
vt 0.125 1
vt 0 1
vt 0 0
vt 0.125 0
vt 0 0
vt 1 0
vt 1 1
vt 0 1
vt 0.875 1
vt 0.875 0
vt 1 0
vt 1 1
vt 1 1
vt 0.875 1
vt 0.875 0
vt 1 0
vt 0.125 0
vt 0.125 1
vt 0.875 1
vt 0.875 0
vt 0.125 0.125
vt 0.125 0
vt 0.875 0
vt 0.875 0.125
vt 0.8125 1
vt 0.0625 1
vt 0.0625 0.875
vt 0.8125 0.875
vt 0.875 0
vt 0.875 1
vt 0.125 1
vt 0.125 0
vt 0.125 1
vt 0.125 0.875
vt 0.875 0.875
vt 0.875 1
vt 0.875 0.125
vt 0.125 0.125
vt 0.125 0
vt 0.875 0
vt 0 1
vt 0 0
vt 1 0
vt 1 1
vt 1 0
vt 1 1
vt 0 1
vt 0 0
vt 0.875 0
vt 0.125 0
vt 0.125 1
vt 0.875 1
vt 0.125 1
vt 0.875 1
vt 0.875 0
vt 0.125 0
vn -1 0 0
vn 0 -1 0
vn 0 1 0
vn -1 0 0
vn 0 -1 0
vn 0 1 0
vn 0 0 1
vn 0 -1 0
vn 0 1 0
vn 0 0 1
vn 0 -1 0
vn 0 1 0
vn 0 0 -1
vn 0 0 1
vn 1 0 0
vn -1 0 0
usemtl m_8f3acd8f-9c12-e1d8-e0e5-05487c7f2857
f 1/1/1 2/2/1 3/3/1 4/4/1
f 1/5/2 2/6/2 6/7/2 5/8/2
f 7/9/3 3/10/3 4/11/3 8/12/3
f 13/13/4 14/14/4 15/15/4 16/16/4
f 9/17/5 10/18/5 14/19/5 13/20/5
f 15/21/6 11/22/6 12/23/6 16/24/6
f 17/25/7 20/26/7 24/27/7 21/28/7
f 17/29/8 18/30/8 22/31/8 21/32/8
f 23/33/9 19/34/9 20/35/9 24/36/9
f 26/37/10 27/38/10 31/39/10 30/40/10
f 25/41/11 26/42/11 30/43/11 29/44/11
f 31/45/12 27/46/12 28/47/12 32/48/12
f 33/49/13 34/50/13 36/51/13 35/52/13
f 37/53/14 38/54/14 40/55/14 39/56/14
f 41/57/15 42/58/15 44/59/15 43/60/15
f 45/61/16 46/62/16 48/63/16 47/64/16
