# Made in Blockbench 5.1.6
mtllib chimney_top.mtl

g mat a
v -0.5 -0.5 0.5
v -0.5 -0.5 -0.5
v -0.5 0.125 -0.5
v -0.5 0.125 0.5
v -0.375 -0.5 0.5
v -0.375 -0.5 -0.5
v -0.375 0.125 -0.5
v -0.375 0.125 0.5
v -0.375 -0.5 0.5
v -0.375 -0.5 0.375
v -0.375 0.125 0.375
v 0.375 -0.5 0.5
v 0.375 -0.5 0.375
v 0.375 0.125 0.375
v 0.375 -0.5 0.5
v 0.375 -0.5 -0.5
v 0.375 0.125 -0.5
v 0.375 0.125 0.5
v 0.5 -0.5 0.5
v 0.5 -0.5 -0.5
v 0.5 0.125 -0.5
v 0.5 0.125 0.5
v -0.375 -0.5 -0.375
v -0.375 -0.5 -0.5
v -0.375 0.125 -0.375
v 0.375 -0.5 -0.375
v 0.375 -0.5 -0.5
v 0.375 0.125 -0.375
v -0.5 0.125 -0.5
v -0.5 -0.5 -0.5
v 0.5 0.125 -0.5
v 0.5 -0.5 -0.5
v -0.5 0.125 0.5
v -0.5 -0.5 0.5
v 0.5 0.125 0.5
v 0.5 -0.5 0.5
vt 1 0
vt 0 0
vt 0 0.625
vt 1 0.625
vt 0 0
vt 1 0
vt 1 0.625
vt 0 0.625
vt 1 0
vt 1 1
vt 0.875 1
vt 0.875 0
vt 0.875 0
vt 0.875 0.625
vt 0.125 0.625
vt 0.125 0
vt 0.875 0
vt 0.875 0.125
vt 0.125 0.125
vt 0.125 0
vt 0 0
vt 1 0
vt 1 0.625
vt 0 0.625
vt 0 0
vt 1 0
vt 1 0.625
vt 0 0.625
vt 0.125 0
vt 0.125 1
vt 0 1
vt 0 0
vt 0.125 0
vt 0.125 0.625
vt 0.875 0.625
vt 0.875 0
vt 0.875 0.875
vt 0.875 1
vt 0.125 1
vt 0.125 0.875
vt 1 0.625
vt 1 0
vt 0 0
vt 0 0.625
vt 0 0.625
vt 0 0
vt 1 0
vt 1 0.625
vn 1 0 0
vn 1 0 0
vn 0 -1 0
vn 0 0 -1
vn 0 -1 0
vn 1 0 0
vn 1 0 0
vn 0 -1 0
vn 0 0 -1
vn 0 -1 0
vn 0 0 1
vn 0 0 1
usemtl m_59888bf4-b3f1-c760-2248-908461a3f0df
f 1/1/1 2/2/1 3/3/1 4/4/1
f 5/5/2 6/6/2 7/7/2 8/8/2
f 1/9/3 2/10/3 6/11/3 5/12/3
f 10/13/4 11/14/4 14/15/4 13/16/4
f 9/17/5 10/18/5 13/19/5 12/20/5
f 15/21/6 16/22/6 17/23/6 18/24/6
f 19/25/7 20/26/7 21/27/7 22/28/7
f 15/29/8 16/30/8 20/31/8 19/32/8
f 23/33/9 25/34/9 28/35/9 26/36/9
f 23/37/10 24/38/10 27/39/10 26/40/10
f 29/41/11 30/42/11 32/43/11 31/44/11
f 33/45/12 34/46/12 36/47/12 35/48/12
g mat b
v 0.5625 0.125 -0.5625
v 0.5625 0.125 0.5625
v 0.5625 0.5 0.5625
v 0.5625 0.5 -0.5625
v 0.375 0.125 -0.5625
v 0.375 0.125 0.5625
v 0.375 0.5 0.5625
v 0.375 0.5 -0.5625
v -0.375 0.125 -0.5625
v -0.375 0.125 0.5625
v -0.375 0.5 0.5625
v -0.375 0.5 -0.5625
v -0.5625 0.125 -0.5625
v -0.5625 0.125 0.5625
v -0.5625 0.5 0.5625
v -0.5625 0.5 -0.5625
v 0.375 0.125 0.375
v 0.375 0.125 0.5625
v 0.375 0.5 0.5625
v 0.375 0.5 0.375
v -0.375 0.125 0.375
v -0.375 0.125 0.5625
v -0.375 0.5 0.5625
v -0.375 0.5 0.375
v 0.375 0.125 -0.5625
v 0.375 0.125 -0.375
v 0.375 0.5 -0.375
v 0.375 0.5 -0.5625
v -0.375 0.125 -0.5625
v -0.375 0.125 -0.375
v -0.375 0.5 -0.375
v -0.375 0.5 -0.5625
v 0.5625 0.5 -0.5625
v 0.5625 0.125 -0.5625
v -0.5625 0.5 -0.5625
v -0.5625 0.125 -0.5625
v -0.5625 0.5 0.5625
v -0.5625 0.125 0.5625
v 0.5625 0.5 0.5625
v 0.5625 0.125 0.5625
vt 1.125 0
vt 0 0
vt 0 0.375
vt 1.125 0.375
vt 0 0
vt 1.125 0
vt 1.125 0.375
vt 0 0.375
vt 0 0
vt 0 1.125
vt 0.1875 1.125
vt 0.1875 0
vt 0.1875 1.125
vt 0 1.125
vt 0 0
vt 0.1875 0
vt 1.125 0
vt 0 0
vt 0 0.375
vt 1.125 0.375
vt 0 0
vt 1.125 0
vt 1.125 0.375
vt 0 0.375
vt 0.8125 0
vt 0.8125 1.125
vt 1 1.125
vt 1 0
vt 1 1.125
vt 0.8125 1.125
vt 0.8125 0
vt 1 0
vt 0.125 0
vt 0.125 0.375
vt 0.875 0.375
vt 0.875 0
vt 0.125 0.1875
vt 0.125 0
vt 0.875 0
vt 0.875 0.1875
vt 0.875 0.625
vt 0.125 0.625
vt 0.125 0.4375
vt 0.875 0.4375
vt 0.875 0
vt 0.875 0.375
vt 0.125 0.375
vt 0.125 0
vt 0.125 1
vt 0.125 0.8125
vt 0.875 0.8125
vt 0.875 1
vt 0.875 0.1875
vt 0.125 0.1875
vt 0.125 0
vt 0.875 0
vt -0.125 0.375
vt -0.125 0
vt 1 0
vt 1 0.375
vt -0.125 0.375
vt -0.125 0
vt 1 0
vt 1 0.375
vn -1 0 0
vn -1 0 0
vn 0 -1 0
vn 0 1 0
vn -1 0 0
vn -1 0 0
vn 0 -1 0
vn 0 1 0
vn 0 0 1
vn 0 -1 0
vn 0 1 0
vn 0 0 1
vn 0 -1 0
vn 0 1 0
vn 0 0 -1
vn 0 0 1
usemtl m_8696f5ff-2d91-2a24-e62a-0c6a58193d16
f 37/49/13 38/50/13 39/51/13 40/52/13
f 41/53/14 42/54/14 43/55/14 44/56/14
f 37/57/15 38/58/15 42/59/15 41/60/15
f 43/61/16 39/62/16 40/63/16 44/64/16
f 45/65/17 46/66/17 47/67/17 48/68/17
f 49/69/18 50/70/18 51/71/18 52/72/18
f 45/73/19 46/74/19 50/75/19 49/76/19
f 51/77/20 47/78/20 48/79/20 52/80/20
f 53/81/21 56/82/21 60/83/21 57/84/21
f 53/85/22 54/86/22 58/87/22 57/88/22
f 59/89/23 55/90/23 56/91/23 60/92/23
f 62/93/24 63/94/24 67/95/24 66/96/24
f 61/97/25 62/98/25 66/99/25 65/100/25
f 67/101/26 63/102/26 64/103/26 68/104/26
f 69/105/27 70/106/27 72/107/27 71/108/27
f 73/109/28 74/110/28 76/111/28 75/112/28
